<svg width="48" height="48" viewBox="0 0 48 48" fill="none" xmlns="http://www.w3.org/2000/svg">
<path d="M8.75699 22.8876C8.48761 23.3257 8.0451 23.6299 7.43043 23.7987C8.0451 23.9685 8.48761 24.2717 8.75699 24.7103C9.02636 25.1485 9.16081 25.7912 9.16081 26.6371V29.5905C9.16081 30.1288 9.29913 30.5404 9.57624 30.8252C9.85335 31.1096 10.2683 31.2518 10.822 31.2518H11.1451V34.5974H9.6454C8.0451 34.5974 6.83364 34.2091 6.01101 33.4324C5.18789 32.6557 4.77681 31.5439 4.77681 30.0983V26.5215C4.77681 26.168 4.68783 25.9068 4.51131 25.7371C4.33382 25.5678 4.09201 25.4832 3.78443 25.4832H3V22.1143H3.78443C4.09201 22.1143 4.33382 22.0301 4.51131 21.8604C4.68783 21.6916 4.77681 21.43 4.77681 21.0759V17.4996C4.77681 16.0541 5.18789 14.9422 6.01101 14.165C6.83364 13.3884 8.0451 13 9.6454 13H11.1451V16.3457H10.822C10.2683 16.3457 9.85335 16.4883 9.57624 16.7727C9.29913 17.0576 9.16081 17.4686 9.16081 18.0074V20.9608C9.16081 21.8067 9.02636 22.4489 8.75699 22.8876Z" fill="black"/>
<path d="M13.6654 28.6894C12.6498 28.4509 11.8345 28.1395 11.2193 27.755L12.5343 24.7551C13.1035 25.1091 13.7805 25.3896 14.565 25.5971C15.3494 25.8051 16.1266 25.9086 16.8955 25.9086C17.6031 25.9086 18.1075 25.836 18.4073 25.6895C18.7072 25.5439 18.8566 25.3321 18.8566 25.055C18.8566 24.7783 18.6757 24.582 18.3145 24.4669C17.9532 24.3513 17.3806 24.2401 16.5957 24.1322C15.5956 24.0094 14.7458 23.8479 14.046 23.6476C13.3458 23.4479 12.7422 23.0784 12.2344 22.5402C11.7266 22.0019 11.4732 21.2479 11.4732 20.2788C11.4732 19.4793 11.7116 18.767 12.1885 18.1441C12.6653 17.5212 13.3612 17.0293 14.2767 16.6676C15.1917 16.3063 16.2881 16.1254 17.5649 16.1254C18.4721 16.1254 19.3726 16.2173 20.2649 16.4021C21.1562 16.5868 21.9029 16.8485 22.5026 17.1865L21.1876 20.1637C20.0801 19.5485 18.8798 19.2404 17.5876 19.2404C16.8955 19.2404 16.3882 19.3212 16.0652 19.4827C15.7421 19.6443 15.5806 19.8556 15.5806 20.1172C15.5806 20.4093 15.7571 20.6134 16.1111 20.7285C16.4646 20.8441 17.0493 20.9631 17.8652 21.0864C18.8948 21.2402 19.7489 21.4172 20.4259 21.6169C21.103 21.8172 21.6916 22.1823 22.1916 22.7133C22.6912 23.2438 22.9412 23.9862 22.9412 24.9399C22.9412 25.7243 22.7028 26.428 22.226 27.0509C21.7491 27.6738 21.0455 28.1627 20.1145 28.5167C19.1835 28.8702 18.0649 29.0472 16.7577 29.0472C15.7107 29.0472 14.6806 28.9278 13.6654 28.6894Z" fill="black"/>
<path d="M31.7477 27.0101C32.2405 26.4796 32.4862 25.7523 32.4862 24.8295C32.4862 23.9068 32.2405 23.1799 31.7477 22.6489C31.2554 22.1184 30.6253 21.8528 29.8558 21.8528C29.0864 21.8528 28.4557 22.1184 27.9639 22.6489C27.4711 23.1799 27.2254 23.9068 27.2254 24.8295C27.2254 25.7523 27.4711 26.4796 27.9639 27.0101C28.4557 27.5407 29.0864 27.8062 29.8558 27.8062C30.6253 27.8062 31.2554 27.5407 31.7477 27.0101V27.0101ZM33.8824 19.1649C34.8129 19.6954 35.5514 20.4494 36.0974 21.4263C36.6434 22.4032 36.9166 23.5373 36.9166 24.8295C36.9166 26.1217 36.6434 27.2563 36.0974 28.2327C35.5514 29.2101 34.8129 29.9636 33.8824 30.4946C32.9515 31.0251 31.9175 31.2907 30.7791 31.2907C29.3176 31.2907 28.1559 30.852 27.2946 29.9752V35.5591H22.9106V18.5763H27.0866V19.8221C27.902 18.853 29.1328 18.3689 30.7791 18.3689C31.9175 18.3689 32.9515 18.6339 33.8824 19.1649" fill="black"/>
<path d="M45 22.1145V25.4834H44.2388C43.9312 25.4834 43.6884 25.568 43.5119 25.7373C43.3349 25.9065 43.2469 26.1682 43.2469 26.5217V30.0985C43.2469 31.5441 42.8349 32.6554 42.0122 33.4326C41.1891 34.2093 39.9776 34.5976 38.3783 34.5976H36.8549V31.252H37.2012C37.7554 31.252 38.1704 31.1098 38.447 30.8249C38.7236 30.5401 38.8629 30.129 38.8629 29.5907V26.6373C38.8629 25.7914 38.9973 25.1487 39.2667 24.7106C39.5351 24.2719 39.9776 23.9682 40.5933 23.7989C39.9776 23.6297 39.5351 23.326 39.2667 22.8878C38.9973 22.4492 38.8629 21.8069 38.8629 20.9606V18.0071C38.8629 17.4689 38.7236 17.0573 38.447 16.7729C38.1704 16.4881 37.7554 16.3459 37.2012 16.3459H36.8549V13.0002H38.3783C39.9776 13.0002 41.1891 13.3886 42.0122 14.1653C42.8349 14.9419 43.2469 16.0538 43.2469 17.4998V21.0762C43.2469 21.4302 43.3349 21.6913 43.5119 21.8606C43.6884 22.0303 43.9312 22.1145 44.2388 22.1145H45Z" fill="black"/>
</svg>
